<mxfile host="app.diagrams.net" modified="2022-04-13T00:01:04.991Z" agent="5.0 (Windows NT 10.0; Win64; x64) AppleWebKit/537.36 (KHTML, like Gecko) Chrome/100.0.4896.60 Safari/537.36 Edg/100.0.1185.29" etag="AxywP_S-pRTg0QOgXRz4" version="17.4.3" type="github">
  <diagram id="C5RBs43oDa-KdzZeNtuy" name="Page-1">
    <mxGraphModel dx="1185" dy="676" grid="1" gridSize="10" guides="1" tooltips="1" connect="1" arrows="1" fold="1" page="1" pageScale="1" pageWidth="827" pageHeight="1169" math="0" shadow="0">
      <root>
        <mxCell id="WIyWlLk6GJQsqaUBKTNV-0" />
        <mxCell id="WIyWlLk6GJQsqaUBKTNV-1" parent="WIyWlLk6GJQsqaUBKTNV-0" />
        <mxCell id="WIyWlLk6GJQsqaUBKTNV-2" value="" style="rounded=0;html=1;jettySize=auto;orthogonalLoop=1;fontSize=11;endArrow=block;endFill=0;endSize=8;strokeWidth=1;shadow=0;labelBackgroundColor=none;edgeStyle=orthogonalEdgeStyle;" parent="WIyWlLk6GJQsqaUBKTNV-1" source="WIyWlLk6GJQsqaUBKTNV-3" target="WIyWlLk6GJQsqaUBKTNV-6" edge="1">
          <mxGeometry relative="1" as="geometry" />
        </mxCell>
        <mxCell id="4z3jRcqvaeYXEHNUHA9n-22" value="" style="edgeStyle=elbowEdgeStyle;rounded=0;orthogonalLoop=1;jettySize=auto;html=1;" edge="1" parent="WIyWlLk6GJQsqaUBKTNV-1" source="WIyWlLk6GJQsqaUBKTNV-3" target="4z3jRcqvaeYXEHNUHA9n-21">
          <mxGeometry relative="1" as="geometry" />
        </mxCell>
        <mxCell id="WIyWlLk6GJQsqaUBKTNV-3" value="Piha" style="rounded=1;whiteSpace=wrap;html=1;fontSize=12;glass=0;strokeWidth=1;shadow=0;" parent="WIyWlLk6GJQsqaUBKTNV-1" vertex="1">
          <mxGeometry x="362" y="130" width="120" height="40" as="geometry" />
        </mxCell>
        <mxCell id="4z3jRcqvaeYXEHNUHA9n-6" style="edgeStyle=orthogonalEdgeStyle;rounded=0;orthogonalLoop=1;jettySize=auto;html=1;exitX=0.5;exitY=1;exitDx=0;exitDy=0;" edge="1" parent="WIyWlLk6GJQsqaUBKTNV-1" source="WIyWlLk6GJQsqaUBKTNV-6" target="4z3jRcqvaeYXEHNUHA9n-4">
          <mxGeometry relative="1" as="geometry" />
        </mxCell>
        <mxCell id="WIyWlLk6GJQsqaUBKTNV-6" value="Talo" style="rhombus;whiteSpace=wrap;html=1;shadow=0;fontFamily=Helvetica;fontSize=12;align=center;strokeWidth=1;spacing=6;spacingTop=-4;" parent="WIyWlLk6GJQsqaUBKTNV-1" vertex="1">
          <mxGeometry x="372" y="230" width="100" height="80" as="geometry" />
        </mxCell>
        <mxCell id="4z3jRcqvaeYXEHNUHA9n-15" value="" style="edgeStyle=orthogonalEdgeStyle;rounded=0;orthogonalLoop=1;jettySize=auto;html=1;" edge="1" parent="WIyWlLk6GJQsqaUBKTNV-1" source="WIyWlLk6GJQsqaUBKTNV-10" target="4z3jRcqvaeYXEHNUHA9n-14">
          <mxGeometry relative="1" as="geometry" />
        </mxCell>
        <mxCell id="4z3jRcqvaeYXEHNUHA9n-20" style="edgeStyle=elbowEdgeStyle;rounded=0;orthogonalLoop=1;jettySize=auto;html=1;exitX=1;exitY=1;exitDx=0;exitDy=0;" edge="1" parent="WIyWlLk6GJQsqaUBKTNV-1" source="WIyWlLk6GJQsqaUBKTNV-10" target="4z3jRcqvaeYXEHNUHA9n-17">
          <mxGeometry relative="1" as="geometry" />
        </mxCell>
        <mxCell id="WIyWlLk6GJQsqaUBKTNV-10" value="Maks. 5 kuvaa valittu" style="rhombus;whiteSpace=wrap;html=1;shadow=0;fontFamily=Helvetica;fontSize=12;align=center;strokeWidth=1;spacing=6;spacingTop=-4;" parent="WIyWlLk6GJQsqaUBKTNV-1" vertex="1">
          <mxGeometry x="512" y="360" width="110" height="90" as="geometry" />
        </mxCell>
        <mxCell id="4z3jRcqvaeYXEHNUHA9n-0" value="Valitse talo" style="text;html=1;strokeColor=none;fillColor=none;align=center;verticalAlign=middle;whiteSpace=wrap;rounded=0;" vertex="1" parent="WIyWlLk6GJQsqaUBKTNV-1">
          <mxGeometry x="432" y="180" width="60" height="30" as="geometry" />
        </mxCell>
        <mxCell id="4z3jRcqvaeYXEHNUHA9n-2" value="Valitse mielenkiintoiset kuvat" style="text;html=1;resizable=0;autosize=1;align=center;verticalAlign=middle;points=[];fillColor=none;strokeColor=none;rounded=0;" vertex="1" parent="WIyWlLk6GJQsqaUBKTNV-1">
          <mxGeometry x="422" y="330" width="170" height="20" as="geometry" />
        </mxCell>
        <mxCell id="4z3jRcqvaeYXEHNUHA9n-5" style="edgeStyle=orthogonalEdgeStyle;rounded=0;orthogonalLoop=1;jettySize=auto;html=1;exitX=1;exitY=0.5;exitDx=0;exitDy=0;" edge="1" parent="WIyWlLk6GJQsqaUBKTNV-1" source="4z3jRcqvaeYXEHNUHA9n-4" target="WIyWlLk6GJQsqaUBKTNV-10">
          <mxGeometry relative="1" as="geometry" />
        </mxCell>
        <mxCell id="4z3jRcqvaeYXEHNUHA9n-11" style="edgeStyle=orthogonalEdgeStyle;rounded=0;orthogonalLoop=1;jettySize=auto;html=1;exitX=0;exitY=0.5;exitDx=0;exitDy=0;entryX=1;entryY=0.5;entryDx=0;entryDy=0;" edge="1" parent="WIyWlLk6GJQsqaUBKTNV-1" source="4z3jRcqvaeYXEHNUHA9n-4" target="4z3jRcqvaeYXEHNUHA9n-10">
          <mxGeometry relative="1" as="geometry" />
        </mxCell>
        <mxCell id="4z3jRcqvaeYXEHNUHA9n-4" value="Jos" style="ellipse;whiteSpace=wrap;html=1;aspect=fixed;" vertex="1" parent="WIyWlLk6GJQsqaUBKTNV-1">
          <mxGeometry x="397" y="380" width="50" height="50" as="geometry" />
        </mxCell>
        <mxCell id="4z3jRcqvaeYXEHNUHA9n-7" value="Haluaa valita" style="text;html=1;strokeColor=none;fillColor=none;align=center;verticalAlign=middle;whiteSpace=wrap;rounded=0;" vertex="1" parent="WIyWlLk6GJQsqaUBKTNV-1">
          <mxGeometry x="447" y="360" width="60" height="30" as="geometry" />
        </mxCell>
        <mxCell id="4z3jRcqvaeYXEHNUHA9n-13" style="edgeStyle=orthogonalEdgeStyle;rounded=0;orthogonalLoop=1;jettySize=auto;html=1;exitX=0.5;exitY=0;exitDx=0;exitDy=0;entryX=0;entryY=1;entryDx=0;entryDy=0;" edge="1" parent="WIyWlLk6GJQsqaUBKTNV-1" source="4z3jRcqvaeYXEHNUHA9n-10" target="WIyWlLk6GJQsqaUBKTNV-3">
          <mxGeometry relative="1" as="geometry">
            <mxPoint x="362" y="190" as="targetPoint" />
            <Array as="points">
              <mxPoint x="282" y="230" />
              <mxPoint x="362" y="230" />
            </Array>
          </mxGeometry>
        </mxCell>
        <mxCell id="4z3jRcqvaeYXEHNUHA9n-10" value="Palaa alkuun" style="rounded=1;whiteSpace=wrap;html=1;" vertex="1" parent="WIyWlLk6GJQsqaUBKTNV-1">
          <mxGeometry x="222" y="392.5" width="120" height="25" as="geometry" />
        </mxCell>
        <mxCell id="4z3jRcqvaeYXEHNUHA9n-12" value="Ei halua valita" style="text;html=1;strokeColor=none;fillColor=none;align=center;verticalAlign=middle;whiteSpace=wrap;rounded=0;" vertex="1" parent="WIyWlLk6GJQsqaUBKTNV-1">
          <mxGeometry x="342" y="362.5" width="60" height="30" as="geometry" />
        </mxCell>
        <mxCell id="4z3jRcqvaeYXEHNUHA9n-16" style="edgeStyle=orthogonalEdgeStyle;rounded=0;orthogonalLoop=1;jettySize=auto;html=1;exitX=0.5;exitY=0;exitDx=0;exitDy=0;entryX=1;entryY=0.75;entryDx=0;entryDy=0;" edge="1" parent="WIyWlLk6GJQsqaUBKTNV-1" source="4z3jRcqvaeYXEHNUHA9n-14" target="WIyWlLk6GJQsqaUBKTNV-3">
          <mxGeometry relative="1" as="geometry" />
        </mxCell>
        <mxCell id="4z3jRcqvaeYXEHNUHA9n-14" value="Palaa alkuun" style="rounded=1;whiteSpace=wrap;html=1;shadow=0;strokeWidth=1;spacing=6;spacingTop=-4;" vertex="1" parent="WIyWlLk6GJQsqaUBKTNV-1">
          <mxGeometry x="692" y="390" width="135" height="30" as="geometry" />
        </mxCell>
        <mxCell id="4z3jRcqvaeYXEHNUHA9n-23" style="edgeStyle=elbowEdgeStyle;rounded=0;orthogonalLoop=1;jettySize=auto;html=1;exitX=0.16;exitY=0.55;exitDx=0;exitDy=0;exitPerimeter=0;entryX=0.5;entryY=1;entryDx=0;entryDy=0;" edge="1" parent="WIyWlLk6GJQsqaUBKTNV-1" source="4z3jRcqvaeYXEHNUHA9n-17" target="4z3jRcqvaeYXEHNUHA9n-21">
          <mxGeometry relative="1" as="geometry">
            <Array as="points">
              <mxPoint x="182" y="340" />
            </Array>
          </mxGeometry>
        </mxCell>
        <mxCell id="4z3jRcqvaeYXEHNUHA9n-17" value="Tallennetut kuvat" style="ellipse;shape=cloud;whiteSpace=wrap;html=1;" vertex="1" parent="WIyWlLk6GJQsqaUBKTNV-1">
          <mxGeometry x="582" y="505" width="120" height="80" as="geometry" />
        </mxCell>
        <mxCell id="4z3jRcqvaeYXEHNUHA9n-33" style="edgeStyle=elbowEdgeStyle;rounded=0;orthogonalLoop=1;jettySize=auto;html=1;exitX=0;exitY=0.5;exitDx=0;exitDy=0;entryX=1;entryY=0.5;entryDx=0;entryDy=0;" edge="1" parent="WIyWlLk6GJQsqaUBKTNV-1" source="4z3jRcqvaeYXEHNUHA9n-21" target="4z3jRcqvaeYXEHNUHA9n-29">
          <mxGeometry relative="1" as="geometry" />
        </mxCell>
        <mxCell id="4z3jRcqvaeYXEHNUHA9n-21" value="Portti" style="rhombus;whiteSpace=wrap;html=1;rounded=1;glass=0;strokeWidth=1;shadow=0;arcSize=15;" vertex="1" parent="WIyWlLk6GJQsqaUBKTNV-1">
          <mxGeometry x="142" y="110" width="80" height="80" as="geometry" />
        </mxCell>
        <mxCell id="4z3jRcqvaeYXEHNUHA9n-28" value="Jos on edes yksi kuva, &lt;br&gt;niin voit menna portille" style="text;html=1;align=center;verticalAlign=middle;resizable=0;points=[];autosize=1;strokeColor=none;fillColor=none;" vertex="1" parent="WIyWlLk6GJQsqaUBKTNV-1">
          <mxGeometry x="220" y="110" width="140" height="30" as="geometry" />
        </mxCell>
        <mxCell id="4z3jRcqvaeYXEHNUHA9n-31" value="" style="edgeStyle=elbowEdgeStyle;rounded=0;orthogonalLoop=1;jettySize=auto;html=1;" edge="1" parent="WIyWlLk6GJQsqaUBKTNV-1" source="4z3jRcqvaeYXEHNUHA9n-29" target="4z3jRcqvaeYXEHNUHA9n-30">
          <mxGeometry relative="1" as="geometry" />
        </mxCell>
        <mxCell id="4z3jRcqvaeYXEHNUHA9n-39" style="edgeStyle=elbowEdgeStyle;rounded=0;orthogonalLoop=1;jettySize=auto;html=1;exitX=0.5;exitY=1;exitDx=0;exitDy=0;entryX=0.5;entryY=0;entryDx=0;entryDy=0;" edge="1" parent="WIyWlLk6GJQsqaUBKTNV-1" source="4z3jRcqvaeYXEHNUHA9n-29" target="4z3jRcqvaeYXEHNUHA9n-38">
          <mxGeometry relative="1" as="geometry" />
        </mxCell>
        <mxCell id="4z3jRcqvaeYXEHNUHA9n-29" value="Halutko tehdÃ¤ muutoksen" style="ellipse;whiteSpace=wrap;html=1;aspect=fixed;" vertex="1" parent="WIyWlLk6GJQsqaUBKTNV-1">
          <mxGeometry x="25" y="115" width="70" height="70" as="geometry" />
        </mxCell>
        <mxCell id="4z3jRcqvaeYXEHNUHA9n-36" style="edgeStyle=elbowEdgeStyle;rounded=0;orthogonalLoop=1;jettySize=auto;html=1;exitX=1;exitY=0.25;exitDx=0;exitDy=0;entryX=0.25;entryY=0;entryDx=0;entryDy=0;" edge="1" parent="WIyWlLk6GJQsqaUBKTNV-1" source="4z3jRcqvaeYXEHNUHA9n-30" target="WIyWlLk6GJQsqaUBKTNV-3">
          <mxGeometry relative="1" as="geometry">
            <mxPoint x="355" y="90" as="targetPoint" />
            <Array as="points">
              <mxPoint x="392" y="120" />
              <mxPoint x="400" y="130" />
              <mxPoint x="400" y="70" />
              <mxPoint x="390" y="50" />
              <mxPoint x="390" y="110" />
              <mxPoint x="400" y="130" />
              <mxPoint x="400" y="90" />
            </Array>
          </mxGeometry>
        </mxCell>
        <mxCell id="4z3jRcqvaeYXEHNUHA9n-30" value="Palaa alkuun" style="rounded=1;whiteSpace=wrap;html=1;" vertex="1" parent="WIyWlLk6GJQsqaUBKTNV-1">
          <mxGeometry x="5" y="10" width="110" height="30" as="geometry" />
        </mxCell>
        <mxCell id="4z3jRcqvaeYXEHNUHA9n-37" value="KyllÃ¤" style="text;html=1;strokeColor=none;fillColor=none;align=center;verticalAlign=middle;whiteSpace=wrap;rounded=0;" vertex="1" parent="WIyWlLk6GJQsqaUBKTNV-1">
          <mxGeometry x="70" y="60" width="60" height="30" as="geometry" />
        </mxCell>
        <mxCell id="4z3jRcqvaeYXEHNUHA9n-38" value="Suositus" style="whiteSpace=wrap;html=1;aspect=fixed;" vertex="1" parent="WIyWlLk6GJQsqaUBKTNV-1">
          <mxGeometry x="20" y="260" width="80" height="80" as="geometry" />
        </mxCell>
        <mxCell id="4z3jRcqvaeYXEHNUHA9n-40" value="En" style="text;html=1;strokeColor=none;fillColor=none;align=center;verticalAlign=middle;whiteSpace=wrap;rounded=0;" vertex="1" parent="WIyWlLk6GJQsqaUBKTNV-1">
          <mxGeometry x="70" y="200" width="60" height="30" as="geometry" />
        </mxCell>
      </root>
    </mxGraphModel>
  </diagram>
</mxfile>
